<svg width="54" height="88" viewBox="0 0 54 88" fill="none" xmlns="http://www.w3.org/2000/svg">
<g clip-path="url(#clip0_10_3935)">
<path d="M4.46716 28.7401C4.46716 15.8739 14.8059 5.4436 27.5591 5.4436C40.3125 5.4436 50.6511 15.8739 50.6511 28.7401V66.1963H4.46716V28.7401Z" fill="#32313B"/>
<path d="M50.2679 66.2788L46.0065 71.293L43.7629 66.2788V27.1945C43.7629 17.8667 36.2407 10.2781 26.9949 10.2781C17.7491 10.2781 10.227 17.8667 10.227 27.1945V66.2788L7.98332 71.2924L3.72168 66.2788V27.1945C3.72168 14.2481 14.162 3.71509 26.9949 3.71509C39.8276 3.71509 50.2679 14.2481 50.2679 27.1945V66.2788Z" fill="#8173E6" stroke="#32313B" stroke-miterlimit="10" stroke-linejoin="round"/>
<path d="M53.3825 71.293H46.0067V26.9782C46.0067 16.4022 37.4782 7.79819 26.995 7.79819C16.5119 7.79819 7.98346 16.4022 7.98346 26.9782V71.293H0.607544V26.9782C0.607544 12.2992 12.445 0.356934 26.995 0.356934C41.5451 0.356934 53.3825 12.2993 53.3825 26.9782V71.293Z" fill="#B0A6F9" stroke="#32313B" stroke-miterlimit="10" stroke-linejoin="round"/>
<path d="M28.1874 43.0653C27.6608 43.3542 26.8794 42.9311 26.4422 42.1204C26.0049 41.3097 26.0772 40.4181 26.6037 40.1288L32.3751 36.9612C32.9017 36.6723 33.6831 37.0953 34.1204 37.9064C34.5575 38.7172 34.4851 39.6088 33.9586 39.8977L28.1874 43.0653Z" fill="#EB81AF" stroke="#32313B" stroke-miterlimit="10"/>
<path d="M28.1854 43.0611C28.712 42.7722 28.7843 41.8806 28.3471 41.0698C27.9098 40.2588 27.1284 39.8357 26.6019 40.125C26.0753 40.4139 26.003 41.3055 26.4402 42.1163C26.8775 42.9273 27.6588 43.3504 28.1854 43.0611Z" fill="#EB81AF" stroke="#32313B" stroke-miterlimit="10"/>
<path d="M24.8262 16.4273L25.7382 16.9305L24.8262 17.4337L24.3274 18.3536L23.8288 17.4337L22.917 16.9305L23.8288 16.4273L24.3274 15.5076L24.8262 16.4273Z" fill="#F0F4FA"/>
<path d="M37.0822 29.6895L37.6933 30.0268L37.0822 30.364L36.7476 30.9808L36.4134 30.364L35.8019 30.0268L36.4134 29.6895L36.7476 29.073L37.0822 29.6895Z" fill="#F0F4FA"/>
<path d="M20.2589 44.189L21.0602 44.6313L20.2589 45.0736L19.8203 45.8815L19.3825 45.0736L18.5812 44.6313L19.3825 44.189L19.8203 43.3809L20.2589 44.189Z" fill="#F0F4FA"/>
<path d="M35.6684 57.573L36.2458 57.8913L35.6684 58.2101L35.3528 58.7929L35.0368 58.2101L34.4596 57.8913L35.0368 57.573L35.3528 56.9905L35.6684 57.573Z" fill="#F0F4FA"/>
<path d="M22.9905 34.5051L17.4268 32.683L16.2096 26.9107L20.5557 22.9614L26.1193 24.7837L27.3365 30.5561L22.9905 34.5051Z" fill="#D6A356" stroke="#32313B" stroke-miterlimit="10"/>
<path d="M22.36 36.6893L16.7964 34.8671L15.5792 29.0948L19.9252 25.1455L25.4889 26.9676L26.7062 32.7402L22.36 36.6893Z" fill="#FABE64" stroke="#32313B" stroke-miterlimit="10"/>
<path d="M19.865 25.1488L20.8629 23.0864" stroke="#32313B" stroke-miterlimit="10"/>
<path d="M25.3905 27.1326L25.9447 24.7227" stroke="#32313B" stroke-miterlimit="10"/>
<path d="M38.8634 42.4829L32.4219 39.1677L29.1357 45.6658L30.1813 48.1018L36.6229 51.417L39.9091 44.9182L38.8634 42.4829Z" fill="#2A7857"/>
<path d="M33.5429 41.7595L39.8122 44.9218L36.5897 51.2168L30.379 48.1437L33.5429 41.7595Z" fill="#49B889"/>
<path d="M38.8634 42.4829L32.4219 39.1677L29.1357 45.6658L30.1813 48.1018L36.6229 51.417L39.9091 44.9182L38.8634 42.4829Z" stroke="#32313B" stroke-miterlimit="10"/>
<path d="M30.181 48.1018L33.4669 41.603L39.9088 44.9182" stroke="#32313B" stroke-miterlimit="10"/>
<path d="M33.467 41.603L32.4218 39.1677" stroke="#32313B" stroke-miterlimit="10"/>
<path d="M25.478 56.1165C26.0762 55.0694 25.1781 53.4168 23.4725 52.4254C21.7665 51.4344 19.8988 51.4798 19.3008 52.5276C19.1194 52.8453 18.4769 53.9705 18.2953 54.2885C17.697 55.3363 18.5952 56.989 20.3012 57.9797C22.007 58.9714 23.8745 58.926 24.4725 57.8781C24.6543 57.5601 25.2968 56.4349 25.478 56.1165Z" fill="#5178B3" stroke="#32313B" stroke-miterlimit="10"/>
<path d="M21.3094 56.2273C23.0152 57.2183 24.8829 57.1726 25.4809 56.1251C26.079 55.0776 25.1809 53.4246 23.4751 52.4336C21.7692 51.4422 19.9015 51.488 19.3035 52.5358C18.7055 53.5833 19.6035 55.2363 21.3094 56.2273Z" fill="#6DA2F0" stroke="#32313B" stroke-miterlimit="10"/>
<path d="M34.5582 20.163C34.0597 19.3297 32.5559 19.3238 31.199 20.1499C29.8423 20.9758 29.1464 22.3207 29.6449 23.1541C29.796 23.4068 30.3315 24.3017 30.4824 24.555C30.9811 25.3883 32.4849 25.3941 33.8414 24.5679C35.1985 23.7421 35.8945 22.3972 35.396 21.564C35.245 21.3109 34.7093 20.4157 34.5582 20.163Z" fill="#B36847" stroke="#32313B" stroke-miterlimit="10"/>
<path d="M33.0004 23.1722C34.3571 22.3463 35.053 21.0014 34.5547 20.1683C34.0565 19.3351 32.5527 19.3293 31.1959 20.1551C29.8391 20.981 29.1432 22.3259 29.6415 23.159C30.1398 23.9922 31.6435 23.9981 33.0004 23.1722Z" fill="#F0946C" stroke="#32313B" stroke-miterlimit="10"/>
<path d="M41.1748 73.0032H28.6136H25.3761H12.8148L8.3252 85.806V87.4601H45.6642L45.6276 85.6775L41.1748 73.0032Z" fill="#2A7857" stroke="#32313B" stroke-miterlimit="10" stroke-linejoin="round"/>
<path d="M41.1748 73.0032H28.6136H25.3761H12.8148L8.3252 85.806H25.3761H28.6136H45.6642L41.1748 73.0032Z" fill="#81D8B4" stroke="#32313B" stroke-miterlimit="10" stroke-linejoin="round"/>
</g>
<defs>
<clipPath id="clip0_10_3935">
<rect width="53.5135" height="88" fill="white" transform="translate(0.243286)"/>
</clipPath>
</defs>
</svg>
